<?xml version="1.0" encoding="UTF-8"?><svg xmlns="http://www.w3.org/2000/svg" xmlns:xlink="http://www.w3.org/1999/xlink" fill-opacity="1" color-rendering="auto" color-interpolation="auto" text-rendering="auto" stroke="black" stroke-linecap="square" width="398" stroke-miterlimit="10" shape-rendering="auto" stroke-opacity="1" fill="black" stroke-dasharray="none" font-weight="normal" stroke-width="1" height="332" font-family="'Dialog'" font-style="normal" stroke-linejoin="miter" font-size="12px" stroke-dashoffset="0" image-rendering="auto">
  <!--Generated by ySVG 2.5-->
  <defs id="genericDefs"/>
  <g>
    <defs id="defs1">
      <clipPath clipPathUnits="userSpaceOnUse" id="clipPath1">
        <path d="M0 0 L398 0 L398 332 L0 332 L0 0 Z"/>
      </clipPath>
      <clipPath clipPathUnits="userSpaceOnUse" id="clipPath2">
        <path d="M155 -203 L354 -203 L354 -37 L155 -37 L155 -203 Z"/>
      </clipPath>
    </defs>
    <g fill="rgb(255,204,0)" text-rendering="geometricPrecision" shape-rendering="geometricPrecision" transform="matrix(2,0,0,2,-310,406)" stroke="rgb(255,204,0)">
      <circle r="15" clip-path="url(#clipPath2)" cx="270" cy="-180" stroke="none"/>
    </g>
    <g text-rendering="geometricPrecision" stroke-miterlimit="1.45" shape-rendering="geometricPrecision" transform="matrix(2,0,0,2,-310,406)" stroke-linecap="butt">
      <circle fill="none" r="15" clip-path="url(#clipPath2)" cx="270" cy="-180"/>
      <text x="260.6748" xml:space="preserve" y="-175.3447" clip-path="url(#clipPath2)" font-family="sans-serif" stroke="none">foo</text>
    </g>
    <g fill="rgb(255,204,0)" text-rendering="geometricPrecision" shape-rendering="geometricPrecision" transform="matrix(2,0,0,2,-310,406)" stroke="rgb(255,204,0)">
      <circle r="15" clip-path="url(#clipPath2)" cx="210" cy="-120" stroke="none"/>
    </g>
    <g text-rendering="geometricPrecision" stroke-miterlimit="1.45" shape-rendering="geometricPrecision" transform="matrix(2,0,0,2,-310,406)" stroke-linecap="butt">
      <circle fill="none" r="15" clip-path="url(#clipPath2)" cx="210" cy="-120"/>
      <text x="200.4639" xml:space="preserve" y="-115.3447" clip-path="url(#clipPath2)" font-family="sans-serif" stroke="none">bar</text>
    </g>
    <g fill="rgb(255,204,0)" text-rendering="geometricPrecision" shape-rendering="geometricPrecision" transform="matrix(2,0,0,2,-310,406)" stroke="rgb(255,204,0)">
      <circle r="15" clip-path="url(#clipPath2)" cx="270" cy="-120" stroke="none"/>
    </g>
    <g text-rendering="geometricPrecision" stroke-miterlimit="1.45" shape-rendering="geometricPrecision" transform="matrix(2,0,0,2,-310,406)" stroke-linecap="butt">
      <circle fill="none" r="15" clip-path="url(#clipPath2)" cx="270" cy="-120"/>
      <text x="260.1211" xml:space="preserve" y="-115.3447" clip-path="url(#clipPath2)" font-family="sans-serif" stroke="none">baz</text>
    </g>
    <g fill="rgb(255,204,0)" text-rendering="geometricPrecision" shape-rendering="geometricPrecision" transform="matrix(2,0,0,2,-310,406)" stroke="rgb(255,204,0)">
      <circle r="15" clip-path="url(#clipPath2)" cx="180" cy="-60" stroke="none"/>
    </g>
    <g text-rendering="geometricPrecision" stroke-miterlimit="1.45" shape-rendering="geometricPrecision" transform="matrix(2,0,0,2,-310,406)" stroke-linecap="butt">
      <circle fill="none" r="15" clip-path="url(#clipPath2)" cx="180" cy="-60"/>
      <text x="165.542" xml:space="preserve" y="-55.3447" clip-path="url(#clipPath2)" font-family="sans-serif" stroke="none">bang</text>
    </g>
    <g fill="rgb(255,204,0)" text-rendering="geometricPrecision" shape-rendering="geometricPrecision" transform="matrix(2,0,0,2,-310,406)" stroke="rgb(255,204,0)">
      <circle r="15" clip-path="url(#clipPath2)" cx="330" cy="-120" stroke="none"/>
    </g>
    <g text-rendering="geometricPrecision" stroke-miterlimit="1.45" shape-rendering="geometricPrecision" transform="matrix(2,0,0,2,-310,406)" stroke-linecap="butt">
      <circle fill="none" r="15" clip-path="url(#clipPath2)" cx="330" cy="-120"/>
      <text x="316.957" xml:space="preserve" y="-115.3447" clip-path="url(#clipPath2)" font-family="sans-serif" stroke="none">buzz</text>
      <path fill="none" d="M259.3934 -169.3934 L226.2635 -136.2635" clip-path="url(#clipPath2)"/>
      <path d="M220.6066 -130.6066 L232.6274 -135.5564 L226.9706 -136.9706 L225.5564 -142.6274 Z" clip-path="url(#clipPath2)" stroke="none"/>
      <path fill="none" d="M270 -165 L270 -143" clip-path="url(#clipPath2)"/>
      <path d="M270 -135 L275 -147 L270 -144 L265 -147 Z" clip-path="url(#clipPath2)" stroke="none"/>
      <path fill="none" d="M203.2918 -106.5836 L190.2859 -80.5718" clip-path="url(#clipPath2)"/>
      <path d="M186.7082 -73.4164 L196.5469 -81.9135 L190.7331 -81.4662 L187.6026 -86.3856 Z" clip-path="url(#clipPath2)" stroke="none"/>
      <path fill="none" d="M280.6066 -169.3934 L313.7365 -136.2635" clip-path="url(#clipPath2)"/>
      <path d="M319.3934 -130.6066 L314.4437 -142.6274 L313.0294 -136.9706 L307.3726 -135.5564 Z" clip-path="url(#clipPath2)" stroke="none"/>
    </g>
  </g>
</svg>
