<?xml version="1.0" encoding="UTF-8"?><svg xmlns="http://www.w3.org/2000/svg" xmlns:xlink="http://www.w3.org/1999/xlink" fill-opacity="1" color-rendering="auto" color-interpolation="auto" text-rendering="auto" stroke="black" stroke-linecap="square" width="855" stroke-miterlimit="10" shape-rendering="auto" stroke-opacity="1" fill="black" stroke-dasharray="none" font-weight="normal" stroke-width="1" height="340" font-family="'Dialog'" font-style="normal" stroke-linejoin="miter" font-size="12px" stroke-dashoffset="0" image-rendering="auto">
  <!--Generated by ySVG 2.5-->
  <defs id="genericDefs"/>
  <g>
    <g fill="white" text-rendering="geometricPrecision" shape-rendering="geometricPrecision" transform="translate(-160,-204)" stroke="white">
      <rect x="160" width="855" height="340" y="204" clip-path="url(#clipPath2)" stroke="none"/>
    </g>
    <g stroke-linecap="butt" transform="matrix(1,0,0,1,-160,-204)" text-rendering="geometricPrecision" shape-rendering="geometricPrecision" stroke-dasharray="24,8" stroke-width="4" stroke-miterlimit="1.45">
      <rect x="466.736" y="316.7114" clip-path="url(#clipPath2)" fill="none" width="403.12" rx="4" ry="4" height="186.8"/>
    </g>
    <g font-size="15px" stroke-linecap="butt" transform="matrix(1,0,0,1,-160,-204)" text-rendering="geometricPrecision" font-family="'Arial'" shape-rendering="geometricPrecision" stroke-miterlimit="1.45">
      <text x="581.1525" xml:space="preserve" y="304.2773" clip-path="url(#clipPath2)" stroke="none">Decoupled Event Channel</text>
    </g>
    <g fill="rgb(254,196,52)" text-rendering="geometricPrecision" shape-rendering="geometricPrecision" transform="matrix(1,0,0,1,-160,-204)" stroke="rgb(254,196,52)">
      <rect x="492.532" width="35.12" height="71.6" y="331.5971" clip-path="url(#clipPath2)" stroke="none"/>
    </g>
    <g text-rendering="geometricPrecision" stroke-miterlimit="1.45" shape-rendering="geometricPrecision" transform="matrix(1,0,0,1,-160,-204)" stroke-linecap="butt">
      <rect fill="none" x="492.532" width="35.12" height="71.6" y="331.5971" clip-path="url(#clipPath2)"/>
      <text x="496.759" xml:space="preserve" y="371.5573" clip-path="url(#clipPath2)" font-family="'Arial'" stroke="none">Mem</text>
    </g>
    <g fill="rgb(254,196,52)" text-rendering="geometricPrecision" shape-rendering="geometricPrecision" transform="matrix(1,0,0,1,-160,-204)" stroke="rgb(254,196,52)">
      <rect x="564.132" width="71.6" height="71.6" y="413.5142" clip-path="url(#clipPath2)" stroke="none"/>
    </g>
    <g text-rendering="geometricPrecision" stroke-miterlimit="1.45" shape-rendering="geometricPrecision" transform="matrix(1,0,0,1,-160,-204)" stroke-linecap="butt">
      <rect fill="none" x="564.132" width="71.6" height="71.6" y="413.5142" clip-path="url(#clipPath2)"/>
      <text x="586.5931" xml:space="preserve" y="446.7713" clip-path="url(#clipPath2)" font-family="'Arial'" stroke="none">Sync</text>
      <text x="565.9213" xml:space="preserve" y="460.1775" clip-path="url(#clipPath2)" font-family="'Arial'" stroke="none">(ThreadID 2)</text>
    </g>
    <g fill="rgb(254,196,52)" text-rendering="geometricPrecision" shape-rendering="geometricPrecision" transform="matrix(1,0,0,1,-160,-204)" stroke="rgb(254,196,52)">
      <rect x="707.332" width="71.6" height="71.6" y="331.5971" clip-path="url(#clipPath2)" stroke="none"/>
    </g>
    <g text-rendering="geometricPrecision" stroke-miterlimit="1.45" shape-rendering="geometricPrecision" transform="matrix(1,0,0,1,-160,-204)" stroke-linecap="butt">
      <rect fill="none" x="707.332" width="71.6" height="71.6" y="331.5971" clip-path="url(#clipPath2)"/>
      <text x="722.4543" xml:space="preserve" y="364.8542" clip-path="url(#clipPath2)" font-family="'Arial'" stroke="none">Context</text>
      <text x="716.1232" xml:space="preserve" y="378.2604" clip-path="url(#clipPath2)" font-family="'Arial'" stroke="none">(Function)</text>
    </g>
    <g fill="rgb(254,196,52)" text-rendering="geometricPrecision" shape-rendering="geometricPrecision" transform="matrix(1,0,0,1,-160,-204)" stroke="rgb(254,196,52)">
      <rect x="492.532" width="71.6" height="71.6" y="413.5142" clip-path="url(#clipPath2)" stroke="none"/>
    </g>
    <g text-rendering="geometricPrecision" stroke-miterlimit="1.45" shape-rendering="geometricPrecision" transform="matrix(1,0,0,1,-160,-204)" stroke-linecap="butt">
      <rect fill="none" x="492.532" width="71.6" height="71.6" y="413.5142" clip-path="url(#clipPath2)"/>
      <text x="507.6543" xml:space="preserve" y="446.7713" clip-path="url(#clipPath2)" font-family="'Arial'" stroke="none">Context</text>
      <text x="501.3232" xml:space="preserve" y="460.1775" clip-path="url(#clipPath2)" font-family="'Arial'" stroke="none">(Function)</text>
    </g>
    <g fill="rgb(254,196,52)" text-rendering="geometricPrecision" shape-rendering="geometricPrecision" transform="matrix(1,0,0,1,-160,-204)" stroke="rgb(254,196,52)">
      <rect x="778.932" width="71.6" height="71.6" y="331.5971" clip-path="url(#clipPath2)" stroke="none"/>
    </g>
    <g text-rendering="geometricPrecision" stroke-miterlimit="1.45" shape-rendering="geometricPrecision" transform="matrix(1,0,0,1,-160,-204)" stroke-linecap="butt">
      <rect fill="none" x="778.932" width="71.6" height="71.6" y="331.5971" clip-path="url(#clipPath2)"/>
      <text x="801.3931" xml:space="preserve" y="364.8542" clip-path="url(#clipPath2)" font-family="'Arial'" stroke="none">Sync</text>
      <text x="780.7213" xml:space="preserve" y="378.2604" clip-path="url(#clipPath2)" font-family="'Arial'" stroke="none">(ThreadID 1)</text>
    </g>
    <g fill="rgb(14,44,76)" text-rendering="geometricPrecision" shape-rendering="geometricPrecision" transform="matrix(1,0,0,1,-160,-204)" stroke="rgb(14,44,76)">
      <rect x="896.1949" y="300.4234" clip-path="url(#clipPath2)" width="112.656" rx="4" ry="4" height="67.66" stroke="none"/>
    </g>
    <g text-rendering="geometricPrecision" stroke-miterlimit="1.45" stroke-width="4" shape-rendering="geometricPrecision" transform="matrix(1,0,0,1,-160,-204)" stroke-linecap="butt">
      <rect x="896.1949" y="300.4234" clip-path="url(#clipPath2)" fill="none" width="112.656" rx="4" ry="4" height="67.66"/>
    </g>
    <g stroke-linecap="butt" font-size="16px" transform="matrix(1,0,0,1,-160,-204)" fill="white" text-rendering="geometricPrecision" font-family="'Calibri'" shape-rendering="geometricPrecision" stroke="white" font-weight="bold" stroke-miterlimit="1.45">
      <text x="919.7807" xml:space="preserve" y="322.2534" clip-path="url(#clipPath2)" stroke="none">Workload</text>
      <text x="925.3315" xml:space="preserve" y="338.2534" clip-path="url(#clipPath2)" stroke="none">Analysis</text>
      <text x="937.9955" xml:space="preserve" y="354.2534" clip-path="url(#clipPath2)" stroke="none">Tool</text>
    </g>
    <g fill="rgb(102,102,153)" text-rendering="geometricPrecision" shape-rendering="geometricPrecision" transform="matrix(1,0,0,1,-160,-204)" stroke="rgb(102,102,153)">
      <rect x="280.7171" y="418.0594" clip-path="url(#clipPath2)" width="88.08" rx="4" ry="4" height="54.36" stroke="none"/>
    </g>
    <g text-rendering="geometricPrecision" stroke-miterlimit="1.45" stroke-width="5" shape-rendering="geometricPrecision" transform="matrix(1,0,0,1,-160,-204)" stroke-linecap="butt">
      <rect x="280.7171" y="418.0594" clip-path="url(#clipPath2)" fill="none" width="88.08" rx="4" ry="4" height="54.36"/>
    </g>
    <g stroke-linecap="butt" font-size="14px" transform="matrix(1,0,0,1,-160,-204)" fill="white" text-rendering="geometricPrecision" font-family="'Calibri'" shape-rendering="geometricPrecision" stroke="white" font-weight="bold" stroke-miterlimit="1.45">
      <text x="289.8187" xml:space="preserve" y="448.7393" clip-path="url(#clipPath2)" stroke="none">DynamoRIO</text>
    </g>
    <g fill="silver" text-rendering="geometricPrecision" shape-rendering="geometricPrecision" transform="matrix(1,0,0,1,-160,-204)" stroke="silver">
      <rect x="368.7971" y="420.2194" clip-path="url(#clipPath2)" width="71.6" rx="4" ry="4" height="50.04" stroke="none"/>
    </g>
    <g stroke-linecap="butt" transform="matrix(1,0,0,1,-160,-204)" text-rendering="geometricPrecision" shape-rendering="geometricPrecision" stroke-dasharray="12,4" stroke-width="2" stroke-miterlimit="1.45">
      <rect x="368.7971" y="420.2194" clip-path="url(#clipPath2)" fill="none" width="71.6" rx="4" ry="4" height="50.04"/>
      <text x="381.5874" y="442.6964" clip-path="url(#clipPath2)" font-family="'Arial'" stroke-dasharray="none" stroke="none" stroke-width="1" xml:space="preserve">IR Event</text>
      <text x="374.9165" y="456.1026" clip-path="url(#clipPath2)" font-family="'Arial'" stroke-dasharray="none" stroke="none" stroke-width="1" xml:space="preserve">Translation</text>
    </g>
    <g fill="rgb(102,102,153)" text-rendering="geometricPrecision" shape-rendering="geometricPrecision" transform="matrix(1,0,0,1,-160,-204)" stroke="rgb(102,102,153)">
      <rect x="280.7171" y="362.4514" clip-path="url(#clipPath2)" width="88.08" rx="4" ry="4" height="54.36" stroke="none"/>
    </g>
    <g text-rendering="geometricPrecision" stroke-miterlimit="1.45" stroke-width="5" shape-rendering="geometricPrecision" transform="matrix(1,0,0,1,-160,-204)" stroke-linecap="butt">
      <rect x="280.7171" y="362.4514" clip-path="url(#clipPath2)" fill="none" width="88.08" rx="4" ry="4" height="54.36"/>
    </g>
    <g stroke-linecap="butt" font-size="14px" transform="matrix(1,0,0,1,-160,-204)" fill="white" text-rendering="geometricPrecision" font-family="'Calibri'" shape-rendering="geometricPrecision" stroke="white" font-weight="bold" stroke-miterlimit="1.45">
      <text x="300.4041" xml:space="preserve" y="393.1313" clip-path="url(#clipPath2)" stroke="none">Valgrind</text>
    </g>
    <g fill="silver" text-rendering="geometricPrecision" shape-rendering="geometricPrecision" transform="matrix(1,0,0,1,-160,-204)" stroke="silver">
      <rect x="368.7971" y="366.7714" clip-path="url(#clipPath2)" width="71.6" rx="4" ry="4" height="46.968" stroke="none"/>
    </g>
    <g stroke-linecap="butt" transform="matrix(1,0,0,1,-160,-204)" text-rendering="geometricPrecision" shape-rendering="geometricPrecision" stroke-dasharray="12,4" stroke-width="2" stroke-miterlimit="1.45">
      <rect x="368.7971" y="366.7714" clip-path="url(#clipPath2)" fill="none" width="71.6" rx="4" ry="4" height="46.968"/>
      <text x="381.5874" y="387.7124" clip-path="url(#clipPath2)" font-family="'Arial'" stroke-dasharray="none" stroke="none" stroke-width="1" xml:space="preserve">IR Event</text>
      <text x="374.9165" y="401.1187" clip-path="url(#clipPath2)" font-family="'Arial'" stroke-dasharray="none" stroke="none" stroke-width="1" xml:space="preserve">Translation</text>
    </g>
    <g fill="rgb(14,44,76)" text-rendering="geometricPrecision" shape-rendering="geometricPrecision" transform="matrix(1,0,0,1,-160,-204)" stroke="rgb(14,44,76)">
      <rect x="280.7171" y="267.1314" clip-path="url(#clipPath2)" width="88.08" rx="4" ry="4" height="95.32" stroke="none"/>
    </g>
    <g text-rendering="geometricPrecision" stroke-miterlimit="1.45" stroke-width="5" shape-rendering="geometricPrecision" transform="matrix(1,0,0,1,-160,-204)" stroke-linecap="butt">
      <rect x="280.7171" y="267.1314" clip-path="url(#clipPath2)" fill="none" width="88.08" rx="4" ry="4" height="95.32"/>
    </g>
    <g stroke-linecap="butt" font-size="14px" transform="matrix(1,0,0,1,-160,-204)" fill="white" text-rendering="geometricPrecision" font-family="'Calibri'" shape-rendering="geometricPrecision" stroke="white" font-weight="bold" stroke-miterlimit="1.45">
      <text x="286.4246" xml:space="preserve" y="311.2914" clip-path="url(#clipPath2)" stroke="none">Framework 1</text>
      <text x="302.243" xml:space="preserve" y="325.2914" clip-path="url(#clipPath2)" stroke="none">(Active)</text>
    </g>
    <g fill="white" text-rendering="geometricPrecision" shape-rendering="geometricPrecision" transform="matrix(1,0,0,1,-160,-204)" stroke="white">
      <rect x="368.7971" y="269.2914" clip-path="url(#clipPath2)" width="71.6" rx="4" ry="4" height="87.416" stroke="none"/>
    </g>
    <g stroke-linecap="butt" transform="matrix(1,0,0,1,-160,-204)" text-rendering="geometricPrecision" shape-rendering="geometricPrecision" stroke-dasharray="12,4" stroke-width="2" stroke-miterlimit="1.45">
      <rect x="368.7971" y="269.2914" clip-path="url(#clipPath2)" fill="none" width="71.6" rx="4" ry="4" height="87.416"/>
      <text x="381.5874" y="310.4564" clip-path="url(#clipPath2)" font-family="'Arial'" stroke-dasharray="none" stroke="none" stroke-width="1" xml:space="preserve">IR Event</text>
      <text x="374.9165" y="323.8626" clip-path="url(#clipPath2)" font-family="'Arial'" stroke-dasharray="none" stroke="none" stroke-width="1" xml:space="preserve">Translation</text>
    </g>
    <g fill="rgb(254,196,52)" text-rendering="geometricPrecision" shape-rendering="geometricPrecision" transform="matrix(1,0,0,1,-160,-204)" stroke="rgb(254,196,52)">
      <rect x="564.132" width="71.6" height="71.6" y="331.5971" clip-path="url(#clipPath2)" stroke="none"/>
    </g>
    <g text-rendering="geometricPrecision" stroke-miterlimit="1.45" shape-rendering="geometricPrecision" transform="matrix(1,0,0,1,-160,-204)" stroke-linecap="butt">
      <rect fill="none" x="564.132" width="71.6" height="71.6" y="331.5971" clip-path="url(#clipPath2)"/>
      <text x="579.2543" xml:space="preserve" y="364.8542" clip-path="url(#clipPath2)" font-family="'Arial'" stroke="none">Context</text>
      <text x="568.2562" xml:space="preserve" y="378.2604" clip-path="url(#clipPath2)" font-family="'Arial'" stroke="none">(Instruction)</text>
    </g>
    <g fill="rgb(254,196,52)" text-rendering="geometricPrecision" shape-rendering="geometricPrecision" transform="matrix(1,0,0,1,-160,-204)" stroke="rgb(254,196,52)">
      <rect x="635.732" width="71.6" height="71.6" y="331.5971" clip-path="url(#clipPath2)" stroke="none"/>
    </g>
    <g text-rendering="geometricPrecision" stroke-miterlimit="1.45" shape-rendering="geometricPrecision" transform="matrix(1,0,0,1,-160,-204)" stroke-linecap="butt">
      <rect fill="none" x="635.732" width="71.6" height="71.6" y="331.5971" clip-path="url(#clipPath2)"/>
      <text x="658.1931" xml:space="preserve" y="364.8542" clip-path="url(#clipPath2)" font-family="'Arial'" stroke="none">Sync</text>
      <text x="649.1902" xml:space="preserve" y="378.2604" clip-path="url(#clipPath2)" font-family="'Arial'" stroke="none">(Spawn)</text>
    </g>
    <g fill="rgb(254,196,52)" text-rendering="geometricPrecision" shape-rendering="geometricPrecision" transform="matrix(1,0,0,1,-160,-204)" stroke="rgb(254,196,52)">
      <rect x="527.652" width="36.48" height="71.6" y="331.5971" clip-path="url(#clipPath2)" stroke="none"/>
    </g>
    <g text-rendering="geometricPrecision" stroke-miterlimit="1.45" shape-rendering="geometricPrecision" transform="matrix(1,0,0,1,-160,-204)" stroke-linecap="butt">
      <rect fill="none" x="527.652" width="36.48" height="71.6" y="331.5971" clip-path="url(#clipPath2)"/>
      <text x="529.8871" xml:space="preserve" y="371.5573" clip-path="url(#clipPath2)" font-family="'Arial'" stroke="none">Comp</text>
      <text x="304.0357" font-size="15px" y="257.294" clip-path="url(#clipPath2)" font-family="'Arial'" stroke="none" xml:space="preserve">Event Generators</text>
      <text x="890.3668" font-size="15px" y="290.574" clip-path="url(#clipPath2)" font-family="'Arial'" stroke="none" xml:space="preserve">Event Processors</text>
    </g>
    <g fill="rgb(102,102,153)" text-rendering="geometricPrecision" shape-rendering="geometricPrecision" transform="matrix(1,0,0,1,-160,-204)" stroke="rgb(102,102,153)">
      <rect x="280.7171" y="476.7394" clip-path="url(#clipPath2)" width="88.08" rx="4" ry="4" height="54.36" stroke="none"/>
    </g>
    <g text-rendering="geometricPrecision" stroke-miterlimit="1.45" stroke-width="5" shape-rendering="geometricPrecision" transform="matrix(1,0,0,1,-160,-204)" stroke-linecap="butt">
      <rect x="280.7171" y="476.7394" clip-path="url(#clipPath2)" fill="none" width="88.08" rx="4" ry="4" height="54.36"/>
    </g>
    <g stroke-linecap="butt" font-size="14px" transform="matrix(1,0,0,1,-160,-204)" fill="white" text-rendering="geometricPrecision" font-family="'Calibri'" shape-rendering="geometricPrecision" stroke="white" font-weight="bold" stroke-miterlimit="1.45">
      <text x="291.4354" xml:space="preserve" y="500.4194" clip-path="url(#clipPath2)" stroke="none">Perf, LLVM,</text>
      <text x="312.0491" xml:space="preserve" y="514.4194" clip-path="url(#clipPath2)" stroke="none">et al</text>
    </g>
    <g fill="silver" text-rendering="geometricPrecision" shape-rendering="geometricPrecision" transform="matrix(1,0,0,1,-160,-204)" stroke="silver">
      <rect x="368.7971" y="478.8994" clip-path="url(#clipPath2)" width="71.6" rx="4" ry="4" height="50.04" stroke="none"/>
    </g>
    <g stroke-linecap="butt" transform="matrix(1,0,0,1,-160,-204)" text-rendering="geometricPrecision" shape-rendering="geometricPrecision" stroke-dasharray="12,4" stroke-width="2" stroke-miterlimit="1.45">
      <rect x="368.7971" y="478.8994" clip-path="url(#clipPath2)" fill="none" width="71.6" rx="4" ry="4" height="50.04"/>
      <text x="381.5874" y="501.3764" clip-path="url(#clipPath2)" font-family="'Arial'" stroke-dasharray="none" stroke="none" stroke-width="1" xml:space="preserve">IR Event</text>
      <text x="374.9165" y="514.7827" clip-path="url(#clipPath2)" font-family="'Arial'" stroke-dasharray="none" stroke="none" stroke-width="1" xml:space="preserve">Translation</text>
    </g>
    <g fill="rgb(102,102,153)" text-rendering="geometricPrecision" shape-rendering="geometricPrecision" transform="matrix(1,0,0,1,-160,-204)" stroke="rgb(102,102,153)">
      <rect x="897.5362" y="425.1114" clip-path="url(#clipPath2)" width="111.3146" rx="4" ry="4" height="54.36" stroke="none"/>
    </g>
    <g text-rendering="geometricPrecision" stroke-miterlimit="1.45" stroke-width="5" shape-rendering="geometricPrecision" transform="matrix(1,0,0,1,-160,-204)" stroke-linecap="butt">
      <rect x="897.5362" y="425.1114" clip-path="url(#clipPath2)" fill="none" width="111.3146" rx="4" ry="4" height="54.36"/>
    </g>
    <g stroke-linecap="butt" font-size="14px" transform="matrix(1,0,0,1,-160,-204)" fill="white" text-rendering="geometricPrecision" font-family="'Calibri'" shape-rendering="geometricPrecision" stroke="white" font-weight="bold" stroke-miterlimit="1.45">
      <text x="938.4894" xml:space="preserve" y="441.7914" clip-path="url(#clipPath2)" stroke="none">False</text>
      <text x="931.3903" xml:space="preserve" y="455.7914" clip-path="url(#clipPath2)" stroke="none">Sharing</text>
      <text x="929.4011" xml:space="preserve" y="469.7914" clip-path="url(#clipPath2)" stroke="none">Analysis</text>
    </g>
    <g fill="rgb(102,102,153)" text-rendering="geometricPrecision" shape-rendering="geometricPrecision" transform="matrix(1,0,0,1,-160,-204)" stroke="rgb(102,102,153)">
      <rect x="897.5362" y="370.7514" clip-path="url(#clipPath2)" width="111.3146" rx="4" ry="4" height="54.36" stroke="none"/>
    </g>
    <g text-rendering="geometricPrecision" stroke-miterlimit="1.45" stroke-width="5" shape-rendering="geometricPrecision" transform="matrix(1,0,0,1,-160,-204)" stroke-linecap="butt">
      <rect x="897.5362" y="370.7514" clip-path="url(#clipPath2)" fill="none" width="111.3146" rx="4" ry="4" height="54.36"/>
    </g>
    <g stroke-linecap="butt" font-size="14px" transform="matrix(1,0,0,1,-160,-204)" fill="white" text-rendering="geometricPrecision" font-family="'Calibri'" shape-rendering="geometricPrecision" stroke="white" font-weight="bold" stroke-miterlimit="1.45">
      <text x="935.8234" xml:space="preserve" y="394.4314" clip-path="url(#clipPath2)" stroke="none">Cache</text>
      <text x="921.8747" xml:space="preserve" y="408.4314" clip-path="url(#clipPath2)" stroke="none">Simulation</text>
    </g>
    <g fill="rgb(102,102,153)" text-rendering="geometricPrecision" shape-rendering="geometricPrecision" transform="matrix(1,0,0,1,-160,-204)" stroke="rgb(102,102,153)">
      <rect x="897.5362" y="483.7914" clip-path="url(#clipPath2)" width="111.3146" rx="4" ry="4" height="54.36" stroke="none"/>
    </g>
    <g text-rendering="geometricPrecision" stroke-miterlimit="1.45" stroke-width="5" shape-rendering="geometricPrecision" transform="matrix(1,0,0,1,-160,-204)" stroke-linecap="butt">
      <rect x="897.5362" y="483.7914" clip-path="url(#clipPath2)" fill="none" width="111.3146" rx="4" ry="4" height="54.36"/>
    </g>
    <g stroke-linecap="butt" font-size="14px" transform="matrix(1,0,0,1,-160,-204)" fill="white" text-rendering="geometricPrecision" font-family="'Calibri'" shape-rendering="geometricPrecision" stroke="white" font-weight="bold" stroke-miterlimit="1.45">
      <text x="924.5441" xml:space="preserve" y="500.4714" clip-path="url(#clipPath2)" stroke="none">Workload</text>
      <text x="902.5495" xml:space="preserve" y="514.4714" clip-path="url(#clipPath2)" stroke="none">Characterizations</text>
      <text x="921.9875" xml:space="preserve" y="528.4714" clip-path="url(#clipPath2)" stroke="none">and Traces</text>
      <text x="545.3917" font-size="24px" y="229.956" clip-path="url(#clipPath2)" fill="black" stroke="none" xml:space="preserve">Prism Profiler-Agnostic</text>
      <text x="559.3077" font-size="24px" y="253.956" clip-path="url(#clipPath2)" fill="black" stroke="none" xml:space="preserve">Application Analysis</text>
    </g>
    <g text-rendering="geometricPrecision" shape-rendering="geometricPrecision" transform="matrix(1,0,0,0.9999,11.9989,124.1902)">
      <g clip-path="url(#clipPath3)">
        <svg xml:space="preserve" opacity="1" writing-mode="lr-tb" stop-color="rgb(0, 0, 0)" shape-rendering="auto" glyph-orientation-horizontal="0deg" color-profile="auto" lighting-color="rgb(255, 255, 255)" color="rgb(0, 0, 0)" font-weight="400" alignment-baseline="auto" font-style="normal" version="1.1" color-interpolation-filters="linearrgb" text-anchor="start" stroke-linecap="butt" color-interpolation="srgb" font-variant="normal" word-spacing="normal" fill-opacity="1" text-rendering="auto" clip-path="none" text-decoration="none" letter-spacing="normal" viewBox="0 0 57 65" glyph-orientation-vertical="auto" display="inline" font-size-adjust="none" overflow="visible" fill="rgb(0, 0, 0)" font-stretch="normal" stroke-dasharray="none" id="svg1.Ebene_1" stroke-miterlimit="4" stop-opacity="1" color-rendering="auto" font-size="12" pointer-events="visiblepainted" mask="none" direction="ltr" baseline-shift="baseline" enable-background="new 0 0 57 65" fill-rule="nonzero" image-rendering="auto" stroke-dashoffset="0" width="57px" marker-end="none" clip="auto" cursor="auto" stroke="none" filter="none" visibility="visible" kerning="auto" stroke-width="1" font-family="&quot;Arial&quot;,&quot;Helvetica&quot;,sans-serif" flood-opacity="1" clip-rule="nonzero" src="none" height="65px" unicode-bidi="normal" stroke-linejoin="miter" stroke-opacity="1" flood-color="rgb(0, 0, 0)" dominant-baseline="auto" marker-start="none" x="0px" marker-mid="none" y="0px">
<g>
	
		<linearGradient gradientTransform="matrix(1 0 0 1 0.1602 -1546.3828)" x1="26.5" x2="27.741" gradientUnits="userSpaceOnUse" y1="1570.3457" y2="1600.1431" id="svg1.SVGID_1_">
		<stop offset="0.2711" style="stop-color:#FFAB4F"/>
		<stop offset="1" style="stop-color:#FFD28F"/>
	</linearGradient>
	<path fill="url(#svg1.SVGID_1_)" d="M49.529,51.225c-4.396-4.396-10.951-5.884-12.063-6.109   V37.8H19.278c0,0,0.038,6.903,0,6.868c0,0-6.874,0.997-12.308,6.432C1.378,56.691,0.5,62.77,0.5,62.77   c0,1.938,1.575,3.492,3.523,3.492h48.51c1.947,0,3.521-1.558,3.521-3.492C56.055,62.768,54.211,55.906,49.529,51.225z" stroke-miterlimit="10" stroke="#ED9135"/>
	
		<radialGradient gradientTransform="matrix(1 0 0 1 0.1602 -1546.3828)" gradientUnits="userSpaceOnUse" r="23.4243" cx="27.7427" id="svg1.face_x5F_white_1_" cy="1572.1094" fx="23.1732" fy="1569.6195">
		<stop offset="0" style="stop-color:#FFD28F"/>
		<stop offset="1" style="stop-color:#FFAB4F"/>
	</radialGradient>
	<path fill="url(#svg1.face_x5F_white_1_)" id="svg1.face_x5F_white_3_" d="M43.676,23.357   c0.086,10.2-6.738,18.52-15.247,18.586c-8.502,0.068-15.466-8.146-15.552-18.344C12.794,13.4,19.618,5.079,28.123,5.012   C36.627,4.945,43.59,13.158,43.676,23.357z" stroke-miterlimit="10" stroke="#ED9135"/>
	
		<linearGradient gradientTransform="matrix(0.275 0 0 -0.2733 -977.2951 -1806.3545)" x1="3646.5117" x2="3670.1414" gradientUnits="userSpaceOnUse" y1="-6639.5884" y2="-6733.0391" id="svg1.face_highlight_1_">
		<stop offset="0" style="stop-color:#FFFFFF;stop-opacity:0.24"/>
		<stop offset="1" style="stop-color:#FFFFFF;stop-opacity:0.16"/>
	</linearGradient>
	<path fill="url(#svg1.face_highlight_1_)" id="svg1.face_highlight_3_" d="M27.958,6.333c-6.035,0.047-10.747,4.493-12.787,10.386   c-0.664,1.919-0.294,4.043,0.98,5.629c2.73,3.398,5.729,6.283,9.461,8.088c3.137,1.518,7.535,2.385,11.893,1.247   c2.274-0.592,3.988-2.459,4.375-4.766c0.183-1.094,0.293-2.289,0.283-3.553C42.083,13.952,36.271,6.268,27.958,6.333z"/>
	<path fill="#CC9869" d="M20.278,13.25   c3.417,4.333,9.333,6.917,9.333,6.917l-1.417-3.5c0,0,7.094,4.691,8.083,4.333c0.968-0.2-1.082-3.807-1.082-3.807   s3.138,1.795,4.854,3.969c1.803,2.28,4.285,3.504,4.285,3.504S47.027,2.719,27.289,2.744C8.278,2.709,12.058,27.678,12.058,27.678   L14.695,17c0,0,0.914,5.757,1.399,4.875C17.861,15.211,18.861,11.5,20.278,13.25z" id="svg1.Hair_Young_Brown_1_" stroke="#99724F" stroke-linecap="round" stroke-linejoin="round"/>
	
		<radialGradient gradientTransform="matrix(1 0 0 1 0.1602 -1546.3828)" id="svg1.collar_x5F_body_2_" r="32.4004" cx="15.1191" gradientUnits="userSpaceOnUse" cy="1603.5518">
		<stop offset="0" style="stop-color:#B0E8FF"/>
		<stop offset="1" style="stop-color:#74AEEE"/>
	</radialGradient>
	<path fill="url(#svg1.collar_x5F_body_2_)" d="M0.5,62.768c0,1.938,1.575,3.494,3.523,3.494   h48.51c1.947,0,3.521-1.559,3.521-3.494c0,0-1.844-6.861-6.525-11.543c-4.815-4.813-11.244-6.146-11.244-6.146   c-1.771,1.655-5.61,2.802-10.063,2.802c-4.453,0-8.292-1.146-10.063-2.802c0,0-5.755,0.586-11.189,6.021   C1.378,56.689,0.5,62.768,0.5,62.768z" id="svg1.collar_x5F_body_1_" stroke="#5491CF"/>
	
		<radialGradient gradientTransform="matrix(1 0 0 1 0.1602 -1546.3828)" id="svg1.collar_x5F_r_2_" r="9.2831" cx="31.46" gradientUnits="userSpaceOnUse" cy="1593.6777">
		<stop offset="0" style="stop-color:#80CCFF"/>
		<stop offset="1" style="stop-color:#74AEEE"/>
	</radialGradient>
	<path fill="url(#svg1.collar_x5F_r_2_)" d="M38.159,41.381c0,0-0.574,2.369-3.013,4.441   c-2.108,1.795-5.783,2.072-5.783,2.072l3.974,6.217c0,0,2.957-1.637,5.009-3.848c1.922-2.072,1.37-5.479,1.37-5.479L38.159,41.381z   " id="svg1.collar_x5F_r_1_" stroke="#5491CF"/>
	
		<radialGradient gradientTransform="matrix(1 0 0 1 0.1602 -1546.3828)" id="svg1.collar_x5F_l_2_" r="9.2837" cx="19.0977" gradientUnits="userSpaceOnUse" cy="1593.7188">
		<stop offset="0" style="stop-color:#80CCFF"/>
		<stop offset="1" style="stop-color:#74AEEE"/>
	</radialGradient>
	<path fill="url(#svg1.collar_x5F_l_2_)" d="M18.63,41.422c0,0,0.576,2.369,3.012,4.441   c2.109,1.793,5.785,2.072,5.785,2.072l-3.974,6.217c0,0-2.957-1.637-5.007-3.85c-1.922-2.072-1.37-5.48-1.37-5.48L18.63,41.422z" id="svg1.collar_x5F_l_1_" stroke="#5491CF"/>
	
		<linearGradient gradientTransform="matrix(0.9852 0 0 -0.9852 -18.8086 -1488.5884)" x1="79.9941" x2="15.6017" gradientUnits="userSpaceOnUse" y1="-1567.4565" y2="-1567.4565" id="svg1.body_1_">
		<stop offset="0" style="stop-color:#49AD33"/>
		<stop offset="1" style="stop-color:#C2DA92"/>
	</linearGradient>
	<path fill="url(#svg1.body_1_)" d="M0.5,62.768c0,1.938,1.575,3.494,3.523,3.494h48.51   c1.947,0,3.521-1.559,3.521-3.494c0,0-1.844-6.861-6.525-11.543c-4.815-4.813-11.244-6.146-11.244-6.146   c-1.771,1.655-5.61,2.802-10.063,2.802c-4.453,0-8.292-1.146-10.063-2.802c0,0-5.755,0.586-11.189,6.021   C1.378,56.689,0.5,62.768,0.5,62.768z" id="svg1.body_9_" stroke="#008D33"/>
	
		<linearGradient gradientTransform="matrix(1 0 0 1 0.1602 -1546.3828)" x1="41.248" x2="15.2274" gradientUnits="userSpaceOnUse" y1="1593.0166" y2="1593.0166" id="svg1.turtleneck_1_">
		<stop offset="0" style="stop-color:#49AD33"/>
		<stop offset="1" style="stop-color:#C2DA92"/>
	</linearGradient>
	<path fill="url(#svg1.turtleneck_1_)" d="M39.715,44.786l-1.557-3.405c0,0-0.574,2.369-3.012,4.441   c-2.109,1.795-6.785,2.072-6.785,2.072s-4.753-0.356-6.722-2.031c-2.436-2.072-3.012-4.441-3.012-4.441l-1.555,3.404   c0,0-0.552,1.404,1.37,3.479c1.025,1.105,5.203,3.611,9.682,3.582c4.479-0.029,9.264-2.594,10.218-3.623   C40.266,46.191,39.715,44.786,39.715,44.786z" id="svg1.turtleneck_6_" stroke="#008D33"/>
	<path fill="#CC9869" d="M36.118,33.275   c-0.614,0.828-2.054,1.397-3.662,1.344c-1.399-0.047-2.694-0.286-3.429-0.787c-0.183-0.125-0.499-0.598-0.604-0.604   c-0.136-0.004-0.458,0.476-0.649,0.604c-1.382,0.932-4.73,1.074-6.257,0.139c-0.427-0.262-0.919-0.615-1.066-1.113   c-0.317-1.076,0.336,0.16,1.715-0.092c1.615-0.295,3.577-4.193,5.887-2.596c0.118,0.082,0.274,0.324,0.325,0.325   c0.099,0.002,0.64-0.503,0.788-0.556c2.393-0.859,3.818,2.568,5.377,2.828C35.346,32.899,36.844,32.295,36.118,33.275z" stroke-width="0.9271" stroke="#99724F" stroke-linecap="round" stroke-linejoin="round"/>
</g>
</svg>
      </g>
    </g>
    <g text-rendering="geometricPrecision" shape-rendering="geometricPrecision" transform="matrix(1,0,0,1,5.823,193.947)">
      <g clip-path="url(#clipPath4)">
        <svg xml:space="preserve" opacity="1" writing-mode="lr-tb" stop-color="rgb(0, 0, 0)" shape-rendering="auto" glyph-orientation-horizontal="0deg" color-profile="auto" lighting-color="rgb(255, 255, 255)" color="rgb(0, 0, 0)" font-weight="400" alignment-baseline="auto" font-style="normal" version="1.1" color-interpolation-filters="linearrgb" text-anchor="start" stroke-linecap="butt" color-interpolation="srgb" font-variant="normal" word-spacing="normal" fill-opacity="1" text-rendering="auto" clip-path="none" text-decoration="none" letter-spacing="normal" viewBox="-0.064 -0.075 68 46" glyph-orientation-vertical="auto" display="inline" font-size-adjust="none" overflow="visible" fill="rgb(0, 0, 0)" font-stretch="normal" stroke-dasharray="none" stroke-miterlimit="4" stop-opacity="1" color-rendering="auto" font-size="12" pointer-events="visiblepainted" mask="none" direction="ltr" baseline-shift="baseline" enable-background="new -0.064 -0.075 68 46" fill-rule="nonzero" image-rendering="auto" stroke-dashoffset="0" width="68px" marker-end="none" clip="auto" cursor="auto" stroke="none" filter="none" visibility="visible" kerning="auto" stroke-width="1" font-family="&quot;Arial&quot;,&quot;Helvetica&quot;,sans-serif" flood-opacity="1" clip-rule="nonzero" src="none" height="46px" unicode-bidi="normal" stroke-linejoin="miter" stroke-opacity="1" flood-color="rgb(0, 0, 0)" dominant-baseline="auto" marker-start="none" x="0px" marker-mid="none" y="0px">
<defs>
<clipPath clipPathUnits="userSpaceOnUse" id="clipPath1">
              <path d="M0 0 L855 0 L855 340 L0 340 L0 0 Z"/>
            </clipPath>
            <clipPath clipPathUnits="userSpaceOnUse" id="clipPath2">
              <path d="M160 204 L1015 204 L1015 544 L160 544 L160 204 Z"/>
            </clipPath>
            <clipPath clipPathUnits="userSpaceOnUse" id="clipPath3">
              <path d="M-11.9989 -124.2057 L842.9995 -124.2057 L842.9995 215.8366 L-11.9989 215.8366 L-11.9989 -124.2057 Z"/>
            </clipPath>
            <clipPath clipPathUnits="userSpaceOnUse" id="clipPath4">
              <path d="M-5.823 -193.947 L849.177 -193.947 L849.177 146.053 L-5.823 146.053 L-5.823 -193.947 Z"/>
            </clipPath>
          </defs>
<radialGradient gradientTransform="matrix(1.15 0 0 1 -526.6598 -1982.4023)" id="svg2.SVGID_1_" r="21.6001" cx="478.8413" gradientUnits="userSpaceOnUse" cy="1991.2729">
	<stop offset="0" style="stop-color:#F2F2F2"/>
	<stop offset="1" style="stop-color:#8D8D8D"/>
</radialGradient>
<path fill="url(#svg2.SVGID_1_)" d="M10.263,1.903c0-0.987,0.807-1.794,1.794-1.794h43.279c0.986,0,1.795,0.807,1.795,1.794v26.978  c0,0.987-0.809,1.794-1.795,1.794h-43.28c-0.987,0-1.794-0.807-1.794-1.794L10.263,1.903L10.263,1.903z"/>
<path stroke-linecap="round" display="none" fill="none" stroke-linejoin="round" d="  M10.263,1.903c0-0.987,0.807-1.794,1.794-1.794h43.279c0.986,0,1.795,0.807,1.795,1.794v26.978c0,0.987-0.809,1.794-1.795,1.794  h-43.28c-0.987,0-1.794-0.807-1.794-1.794L10.263,1.903L10.263,1.903z" stroke="#3C89C9" stroke-width="0.2185" stroke-miterlimit="10"/>
<radialGradient gradientTransform="matrix(1.1935 0 0 1 -509.6731 -1982.4023)" gradientUnits="userSpaceOnUse" r="47.8462" cx="455.894" id="svg2.SVGID_2_" cy="1983.9624" fx="493.5344" fy="1977.5143">
	<stop offset="0" style="stop-color:#4D4D4D"/>
	<stop offset="1" style="stop-color:#999999"/>
</radialGradient>
<path fill="url(#svg2.SVGID_2_)" d="M11.18,2.819c0-0.987,0.807-1.794,1.794-1.794h41.649c0.986,0,1.795,0.807,1.795,1.794v24.943  c0,0.985-0.809,1.794-1.795,1.794H12.974c-0.987,0-1.794-0.809-1.794-1.794V2.819z"/>
<radialGradient gradientTransform="matrix(1.1923 0 0 1 -510.1314 -1982.4023)" id="svg2.SVGID_3_" r="30.6699" cx="456.8843" gradientUnits="userSpaceOnUse" cy="1984.0386">
	<stop offset="0" style="stop-color:#9CD7FF"/>
	<stop offset="1" style="stop-color:#3C89C9"/>
</radialGradient>
<path fill="url(#svg2.SVGID_3_)" d="M11.689,3.228c0-0.987,0.807-1.794,1.794-1.794h40.633c0.986,0,1.795,0.807,1.795,1.794v24.126  c0,0.986-0.809,1.794-1.795,1.794H13.483c-0.987,0-1.794-0.809-1.794-1.794V3.228z"/>
<path fill="#F2F2F2" opacity="0.24" d="M11.689,21.472V3.228c0-0.987,0.807-1.794,1.794-1.794h40.633  c0.986,0,1.795,0.807,1.795,1.794v9.454c0,0.987-10.518,5.21-18.256,6.795C29.917,21.062,11.689,21.472,11.689,21.472z"/>
<linearGradient gradientTransform="matrix(1 0 0 -1 -97.6001 -165.0498)" x1="131.3501" x2="131.3501" gradientUnits="userSpaceOnUse" y1="-212.2612" y2="-170.6274" id="svg2.SVGID_4_">
	<stop offset="0" style="stop-color:#4D4D4D"/>
	<stop offset="0.0667" style="stop-color:#717171"/>
	<stop offset="0.069" style="stop-color:#757575"/>
	<stop offset="0.0831" style="stop-color:#8C8C8C"/>
	<stop offset="0.0996" style="stop-color:#9E9E9E"/>
	<stop offset="0.1196" style="stop-color:#AAAAAA"/>
	<stop offset="0.1466" style="stop-color:#B1B1B1"/>
	<stop offset="0.2121" style="stop-color:#B3B3B3"/>
	<stop offset="1" style="stop-color:#C5C5C5"/>
</linearGradient>
<path fill="url(#svg2.SVGID_4_)" d="M58.385,32.234c-0.689-0.856-2.154-1.559-3.254-1.559H12c-1.1,0-2.552,0.711-3.227,1.579  l-7.546,9.717C0,43.55,0.042,43.785,0,44.55v0.125c0.056,0.393,0.311,1.002,1.248,1.002h64.75c0.75,0.002,1.5-0.252,1.5-1.002V44.55  c0-0.813,0-0.813-1.254-2.559L58.385,32.234z"/>
<path fill="#F2F2F2" d="M58.385,32.234c-0.689-0.856-2.154-1.559-3.254-1.559H12  c-1.1,0-2.552,0.711-3.227,1.579l-7.055,9.085l58.098-7.33L58.385,32.234z" enable-background="new    " opacity="0.23"/>
<path fill="#6E6E6E" d="M59.75,37.205c0.344,0.431,0.172,0.783-0.377,0.783H8.249c-0.55,0-0.742-0.369-0.427-0.819l2.786-3.986  c0.315-0.45,1.023-0.819,1.573-0.819h42.729c0.551,0,1.279,0.354,1.623,0.783L59.75,37.205z"/>
<path fill="#6E6E6E" d="M40.43,41.906c0.072,0.217-0.057,0.395-0.285,0.395H26.727c-0.229,0-0.364-0.18-0.3-0.398l0.822-2.826  c0.064-0.221,0.303-0.399,0.532-0.399h11.167c0.229,0,0.475,0.179,0.547,0.396L40.43,41.906z"/>
</svg>
      </g>
    </g>
    <g text-rendering="geometricPrecision" stroke-miterlimit="1.45" shape-rendering="geometricPrecision" font-family="'Arial'" transform="matrix(1,0,0,1,-160,-204)" stroke-linecap="butt">
      <text x="186.968" xml:space="preserve" y="460.5643" clip-path="url(#clipPath2)" stroke="none">User</text>
      <text x="174.2942" xml:space="preserve" y="473.9705" clip-path="url(#clipPath2)" stroke="none">Workload</text>
      <path fill="none" d="M869.8616 410.1114 L877.5363 410.1114 L877.5363 334.2534 L886.1575 334.2534" stroke-width="3" clip-path="url(#clipPath2)"/>
      <path d="M896.1575 334.2534 L881.1575 328.0034 L884.9075 334.2534 L881.1575 340.5034 Z" stroke-width="3" clip-path="url(#clipPath2)" stroke="none"/>
      <path fill="none" d="M440.3805 312.9994 L448.48 312.9994 L448.48 410.1114 L456.7533 410.1114" stroke-width="3" clip-path="url(#clipPath2)"/>
      <path d="M466.7533 410.1114 L451.7533 403.8614 L455.5033 410.1114 L451.7533 416.3614 Z" stroke-width="3" clip-path="url(#clipPath2)" stroke="none"/>
      <path fill="none" d="M466.736 410.8138 L475.732 410.8138 L475.732 367.3971 L483.532 367.3971" stroke-width="2" clip-path="url(#clipPath2)"/>
      <path d="M492.532 367.3971 L479.032 361.7721 L482.407 367.3971 L479.032 373.0221 Z" stroke-width="2" clip-path="url(#clipPath2)" stroke="none"/>
      <path fill="none" d="M466.7294 410.8138 L475.732 410.8138 L475.732 449.3142 L483.532 449.3142" stroke-width="2" clip-path="url(#clipPath2)"/>
      <path d="M492.532 449.3142 L479.032 443.6892 L482.407 449.3142 L479.032 454.9392 Z" stroke-width="2" clip-path="url(#clipPath2)" stroke="none"/>
      <path fill="none" stroke-dasharray="6,2" d="M671.532 403.1971 L671.532 437.7943 L643.697 437.7943" clip-path="url(#clipPath2)"/>
      <path stroke-dasharray="6,2" d="M635.697 437.7943 L647.697 442.7943 L644.697 437.7943 L647.697 432.7943 Z" clip-path="url(#clipPath2)" stroke="none"/>
      <path fill="none" d="M850.532 367.3971 L857.5363 367.3971 L857.5363 410.1114 L864.8962 410.1114" stroke-width="2" clip-path="url(#clipPath2)"/>
      <path d="M873.8962 410.1114 L860.3962 404.4864 L863.7712 410.1114 L860.3962 415.7364 Z" stroke-width="2" clip-path="url(#clipPath2)" stroke="none"/>
      <path fill="none" d="M635.7288 463.2938 L857.5363 463.2938 L857.5363 410.1114 L864.8962 410.1114" stroke-width="2" clip-path="url(#clipPath2)"/>
      <path d="M873.8962 410.1114 L860.3962 404.4864 L863.7712 410.1114 L860.3962 415.7364 Z" stroke-width="2" clip-path="url(#clipPath2)" stroke="none"/>
      <path fill="none" d="M223.3218 414.0357 L232.0017 414.0357 L235.7892 413.3279 L239.0718 411.2047 L241.8493 407.6659 L244.1219 402.7115 L245.8894 396.3417 L247.1519 388.5564 L247.9095 379.3556 L248.162 368.7392 L248.162 358.6733 L248.712 348.057 L250.3623 338.8561 L253.1127 331.0708 L256.9632 324.701 L261.9139 319.7467 L267.9648 316.2079 L271.811 315.0659 L271.9106 315.0574" stroke-width="2" clip-path="url(#clipPath2)"/>
      <path d="M280.7902 313.5901 L266.5538 310.2412 L270.8007 315.2408 L268.3879 321.3407 Z" stroke-width="2" clip-path="url(#clipPath2)" stroke="none"/>
      <path fill="none" d="M223.3267 414.8687 L224.468 414.9294 L229.5814 414.6527 L234.5279 413.2697 L239.3075 410.7802 L243.9203 407.1845 L245.9334 405.3405 L253.8605 398.5598 L259.5244 394.8134 L260.5315 394.3181 L264.1933 393.2737 L270.6462 392.3698 L271.7647 392.2969" stroke-width="2" clip-path="url(#clipPath2)"/>
      <path d="M280.7457 391.7116 L266.9085 386.9764 L270.6421 392.37 L267.6401 398.2026 Z" stroke-width="2" clip-path="url(#clipPath2)" stroke="none"/>
      <path fill="none" d="M223.2982 414.6632 L240.4239 414.6632 L249.9494 415.5232 L253.6916 416.5981 L256.7534 418.103 L259.1348 420.0379 L260.8358 422.4028 L261.8564 425.1977 L262.1966 428.4225 L262.1966 431.4801 L262.6364 434.7049 L263.9561 437.4998 L266.1555 439.8647 L269.2346 441.7995 L271.8539 442.7952 L271.9525 442.8118" stroke-width="2" clip-path="url(#clipPath2)"/>
      <path d="M280.7763 444.5838 L268.6481 436.4109 L270.8495 442.5903 L266.4331 447.4407 Z" stroke-width="2" clip-path="url(#clipPath2)" stroke="none"/>
      <path fill="none" d="M223.3211 414.2536 L227.3267 414.2536 L233.0167 414.8296 L238.0148 416.5576 L242.321 419.4376 L245.9354 423.4696 L247.3881 425.5176 L248.9202 428.2075 L250.248 431.6693 L252.2907 440.9083 L253.5164 453.2347 L253.925 468.6485 L253.925 476.1852 L254.4173 484.1813 L255.8941 491.2125 L258.3555 497.2785 L261.8014 502.3795 L266.2319 506.5155 L271.647 509.6864 L272.085 509.8374 L272.1836 509.8539" stroke-width="2" clip-path="url(#clipPath2)"/>
      <path d="M280.8245 512.3708 L269.4362 503.1949 L271.1035 509.5393 L266.2901 513.9961 Z" stroke-width="2" clip-path="url(#clipPath2)" stroke="none"/>
    </g>
  </g>
</svg>
